<svg width="17" height="17" viewBox="0 0 17 17" fill="none" xmlns="http://www.w3.org/2000/svg">
<path d="M7.43616 3.585L2.16674 12.1771C2.0581 12.3608 2.00061 12.5692 2 12.7814C1.9994 12.9936 2.05569 13.2022 2.16327 13.3866C2.27086 13.571 2.426 13.7246 2.61325 13.8322C2.8005 13.9398 3.01333 13.9977 3.23058 14H13.7694C13.9867 13.9977 14.1995 13.9398 14.3868 13.8322C14.574 13.7246 14.7291 13.571 14.8367 13.3866C14.9443 13.2022 15.0006 12.9936 15 12.7814C14.9994 12.5692 14.9419 12.3608 14.8333 12.1771L9.56384 3.585C9.45293 3.40642 9.29677 3.25877 9.11043 3.1563C8.92409 3.05383 8.71385 3 8.5 3C8.28615 3 8.07592 3.05383 7.88957 3.1563C7.70323 3.25877 7.54707 3.40642 7.43616 3.585V3.585Z" stroke="white" stroke-linecap="round" stroke-linejoin="round"/>
<path d="M8.5 6.375V9.20833" stroke="white" stroke-linecap="round" stroke-linejoin="round"/>
<path d="M8.5 12.0417H8.5075" stroke="white" stroke-linecap="round" stroke-linejoin="round"/>
</svg>
