<svg width="9" height="13" viewBox="0 0 9 13" fill="none" xmlns="http://www.w3.org/2000/svg">
<g clip-path="url(#clip0_23_65)">
<path d="M1.75 3.75V8.75" stroke="white" stroke-linecap="round" stroke-linejoin="round"/>
<path d="M1.75 12.5C2.7165 12.5 3.5 11.7165 3.5 10.75C3.5 9.7835 2.7165 9 1.75 9C0.783502 9 0 9.7835 0 10.75C0 11.7165 0.783502 12.5 1.75 12.5Z" stroke="white" stroke-linecap="round" stroke-linejoin="round"/>
<path d="M2.12512 8.49998C2.12512 8.49998 5 8.5 5.5 6.5" stroke="white" stroke-linecap="round" stroke-linejoin="round"/>
<path d="M2 3.5C2.9665 3.5 3.75 2.7165 3.75 1.75C3.75 0.783502 2.9665 0 2 0C1.0335 0 0.25 0.783502 0.25 1.75C0.25 2.7165 1.0335 3.5 2 3.5Z" stroke="white" stroke-linecap="round" stroke-linejoin="round"/>
<path d="M6.75 6.5C7.7165 6.5 8.5 5.7165 8.5 4.75C8.5 3.7835 7.7165 3 6.75 3C5.7835 3 5 3.7835 5 4.75C5 5.7165 5.7835 6.5 6.75 6.5Z" stroke="white" stroke-linecap="round" stroke-linejoin="round"/>
</g>
<defs>
<clipPath id="clip0_23_65">
<rect width="8.5" height="12.5" fill="white"/>
</clipPath>
</defs>
</svg>
