<svg width="20" height="27" viewBox="0 0 20 27" fill="none" xmlns="http://www.w3.org/2000/svg">
<g clip-path="url(#clip0_41_172)">
<path d="M13 0H6C5.46957 0 4.96086 0.210714 4.58579 0.585786C4.21071 0.960859 4 1.46957 4 2V18C4 18.5304 4.21071 19.0391 4.58579 19.4142C4.96086 19.7893 5.46957 20 6 20H18C18.5304 20 19.0391 19.7893 19.4142 19.4142C19.7893 19.0391 20 18.5304 20 18V7L13 0Z" stroke="#596E93" stroke-width="2" stroke-linecap="round" stroke-linejoin="round"/>
<path d="M3.5 7C2.96957 7 0.960859 7.21071 0.585786 7.58579C0.210714 7.96086 0 8.46957 0 9V25C0 25.5304 0.210714 26.0391 0.585786 26.4142C0.960859 26.7893 1.46957 27 2 27H14C14.5304 27 15.0391 26.7893 15.4142 26.4142C15.7893 26.0391 16 25.5304 16 25V20" stroke="#596E93" stroke-width="2" stroke-linecap="round" stroke-linejoin="round"/>
<path d="M13 0V7H20" stroke="#596E93" stroke-width="2" stroke-linecap="round" stroke-linejoin="round"/>
</g>
<defs>
<clipPath id="clip0_41_172">
<rect width="20" height="27" fill="white"/>
</clipPath>
</defs>
</svg>
