<svg width="15" height="13" viewBox="0 0 15 13" fill="none" xmlns="http://www.w3.org/2000/svg">
<path d="M1.875 1.79126H13.125V11.0842H1.875V1.79126ZM4.83125 9.55602C5.08125 9.99485 5.575 10.3562 6.41875 10.3562C7.35625 10.3562 8 9.94322 8 9.03975V6.05568H6.9375V9.01909C6.9375 9.46309 6.71875 9.57667 6.375 9.57667C6.0125 9.57667 5.8625 9.37016 5.69375 9.12751L4.83125 9.55602V9.55602ZM8.56875 9.46309C8.88125 9.96904 9.5125 10.3562 10.5 10.3562C11.5 10.3562 12.25 9.92774 12.25 9.13784C12.25 8.40989 11.7438 8.08464 10.8438 7.76455L10.5813 7.67162C10.125 7.51157 9.93125 7.40316 9.93125 7.14502C9.93125 6.93335 10.125 6.76814 10.4375 6.76814C10.7375 6.76814 10.9375 6.87656 11.1188 7.14502L11.9375 6.69586C11.5938 6.20024 11.1063 6.00922 10.4375 6.00922C9.49375 6.00922 8.8875 6.50484 8.8875 7.16051C8.8875 7.87297 9.39375 8.20854 10.1562 8.47701L10.4188 8.56994C10.9063 8.74547 11.1937 8.85389 11.1937 9.15333C11.1937 9.40114 10.9125 9.58183 10.475 9.58183C9.95625 9.58183 9.65625 9.35983 9.43125 9.05007L8.56875 9.46309Z" fill="#FFCA28"/>
</svg>
