<svg width="15" height="13" viewBox="0 0 15 13" fill="none" xmlns="http://www.w3.org/2000/svg">
<path d="M3.125 1.97308H4.375V3.00563H3.125V5.587C3.125 5.86085 2.9933 6.12348 2.75888 6.31712C2.52446 6.51076 2.20652 6.61955 1.875 6.61955C2.20652 6.61955 2.52446 6.72833 2.75888 6.92197C2.9933 7.11561 3.125 7.37825 3.125 7.6521V10.2335H4.375V11.266H3.125C2.45625 11.1266 1.875 10.8014 1.875 10.2335V8.16837C1.875 7.89452 1.7433 7.63189 1.50888 7.43825C1.27446 7.24461 0.956521 7.13582 0.625 7.13582H0V6.10327H0.625C0.956521 6.10327 1.27446 5.99449 1.50888 5.80085C1.7433 5.60721 1.875 5.34458 1.875 5.07073V3.00563C1.875 2.73178 2.0067 2.46915 2.24112 2.27551C2.47554 2.08187 2.79348 1.97308 3.125 1.97308V1.97308ZM11.875 1.97308C12.2065 1.97308 12.5245 2.08187 12.7589 2.27551C12.9933 2.46915 13.125 2.73178 13.125 3.00563V5.07073C13.125 5.34458 13.2567 5.60721 13.4911 5.80085C13.7255 5.99449 14.0435 6.10327 14.375 6.10327H15V7.13582H14.375C14.0435 7.13582 13.7255 7.24461 13.4911 7.43825C13.2567 7.63189 13.125 7.89452 13.125 8.16837V10.2335C13.125 10.5073 12.9933 10.7699 12.7589 10.9636C12.5245 11.1572 12.2065 11.266 11.875 11.266H10.625V10.2335H11.875V7.6521C11.875 7.37825 12.0067 7.11561 12.2411 6.92197C12.4755 6.72833 12.7935 6.61955 13.125 6.61955C12.7935 6.61955 12.4755 6.51076 12.2411 6.31712C12.0067 6.12348 11.875 5.86085 11.875 5.587V3.00563H10.625V1.97308H11.875ZM7.5 8.16837C7.66576 8.16837 7.82473 8.22276 7.94194 8.31958C8.05915 8.4164 8.125 8.54772 8.125 8.68464C8.125 8.82157 8.05915 8.95288 7.94194 9.0497C7.82473 9.14652 7.66576 9.20092 7.5 9.20092C7.33424 9.20092 7.17527 9.14652 7.05806 9.0497C6.94085 8.95288 6.875 8.82157 6.875 8.68464C6.875 8.54772 6.94085 8.4164 7.05806 8.31958C7.17527 8.22276 7.33424 8.16837 7.5 8.16837V8.16837ZM5 8.16837C5.16576 8.16837 5.32473 8.22276 5.44194 8.31958C5.55915 8.4164 5.625 8.54772 5.625 8.68464C5.625 8.82157 5.55915 8.95288 5.44194 9.0497C5.32473 9.14652 5.16576 9.20092 5 9.20092C4.83424 9.20092 4.67527 9.14652 4.55806 9.0497C4.44085 8.95288 4.375 8.82157 4.375 8.68464C4.375 8.54772 4.44085 8.4164 4.55806 8.31958C4.67527 8.22276 4.83424 8.16837 5 8.16837ZM10 8.16837C10.1658 8.16837 10.3247 8.22276 10.4419 8.31958C10.5592 8.4164 10.625 8.54772 10.625 8.68464C10.625 8.82157 10.5592 8.95288 10.4419 9.0497C10.3247 9.14652 10.1658 9.20092 10 9.20092C9.83424 9.20092 9.67527 9.14652 9.55806 9.0497C9.44085 8.95288 9.375 8.82157 9.375 8.68464C9.375 8.54772 9.44085 8.4164 9.55806 8.31958C9.67527 8.22276 9.83424 8.16837 10 8.16837V8.16837Z" fill="#FBC02D"/>
</svg>
